<?xml version="1.0" standalone="no"?>
<!DOCTYPE svg PUBLIC "-//W3C//DTD SVG 20010904//EN"
 "http://www.w3.org/TR/2001/REC-SVG-20010904/DTD/svg10.dtd">
<svg version="1.0" xmlns="http://www.w3.org/2000/svg"
 width="1024.000000pt" height="1024.000000pt" viewBox="0 0 1024.000000 1024.000000"
 preserveAspectRatio="xMidYMid meet">
<metadata>
Created by potrace 1.11, written by Peter Selinger 2001-2013
</metadata>
<g transform="translate(0.000000,1024.000000) scale(0.100000,-0.100000)"
fill="#000000" stroke="none">
<path d="M417 10124 c-1 -1 -40 -4 -87 -5 -47 -2 -90 -8 -96 -14 -6 -5 -22
-17 -34 -25 -28 -19 -64 -75 -74 -114 -6 -23 -11 -9641 -5 -9668 2 -9 2 -10
14 -52 8 -30 77 -106 96 -106 6 0 8 -4 5 -9 -3 -4 6 -6 21 -3 14 3 23 1 20 -4
-3 -5 1995 -9 4848 -9 2669 0 4852 3 4850 6 -2 3 11 11 30 18 38 13 105 85
105 111 0 9 3 20 6 23 4 4 7 2183 7 4844 0 4371 -2 4842 -16 4875 -9 21 -25
47 -36 60 -12 12 -21 25 -21 30 0 4 -3 7 -7 6 -5 -1 -17 3 -29 9 -11 7 -34 15
-50 18 -24 4 -9542 13 -9547 9z"/>
</g>
</svg>
